<svg width="1024" height="1024" viewBox="0 0 100 100" xmlns="http://www.w3.org/2000/svg">
  <rect width="100" height="100" fill="#FBF7EF"/>
  <circle cx="50" cy="50" r="42" fill="#C84A28"/>
  <g fill="#FFF6EC">
    <path d="M33 28 C36 28 38 28 41 28 L41 72 C38 72 36 72 33 72 C34 60 34 40 33 28 Z"/>
    <path d="M40 28 L53 28 C61.5 28 66.5 33 66.5 40 C66.5 46.5 61.5 50.8 53.5 51 L40 51 L40 46 L51.5 46 C56 46 58.8 43.5 58.8 39.6 C58.8 35.6 56 33 51.5 33 L40 33 Z"/>
    <path d="M48 49 L55 49 L68 72 L60 72 L48 51 Z"/>
    <path d="M30 71 L44 71 L44 73.5 L30 73.5 Z"/>
    <path d="M57 71 L71 71 L71 73.5 L57 73.5 Z"/>
    <path d="M30 27 L44 27 L44 29 L30 29 Z"/>
  </g>
</svg>
